<?xml version="1.0" encoding="UTF-8" standalone="no"?>
<!-- Created with Inkscape (http://www.inkscape.org/) -->

<svg
   xmlns:dc="http://purl.org/dc/elements/1.1/"
   xmlns:cc="http://creativecommons.org/ns#"
   xmlns:rdf="http://www.w3.org/1999/02/22-rdf-syntax-ns#"
   xmlns:svg="http://www.w3.org/2000/svg"
   xmlns="http://www.w3.org/2000/svg"
   xmlns:sodipodi="http://sodipodi.sourceforge.net/DTD/sodipodi-0.dtd"
   xmlns:inkscape="http://www.inkscape.org/namespaces/inkscape"
   width="20"
   height="30"
   viewBox="0 0 5.2916664 7.9375002"
   version="1.1"
   id="svg4491"
   inkscape:version="0.92.1 r"
   sodipodi:docname="interact_with.svg">
  <defs
     id="defs4485" />
  <sodipodi:namedview
     id="base"
     pagecolor="#ffffff"
     bordercolor="#666666"
     borderopacity="1.0"
     inkscape:pageopacity="0.0"
     inkscape:pageshadow="2"
     inkscape:zoom="16"
     inkscape:cx="18.8249"
     inkscape:cy="21.938511"
     inkscape:document-units="mm"
     inkscape:current-layer="layer1"
     showgrid="false"
     units="px"
     inkscape:window-width="1920"
     inkscape:window-height="1024"
     inkscape:window-x="0"
     inkscape:window-y="0"
     inkscape:window-maximized="1" />
  <metadata
     id="metadata4488">
    <rdf:RDF>
      <cc:Work
         rdf:about="">
        <dc:format>image/svg+xml</dc:format>
        <dc:type
           rdf:resource="http://purl.org/dc/dcmitype/StillImage" />
        <dc:title></dc:title>
      </cc:Work>
    </rdf:RDF>
  </metadata>
  <g
     inkscape:label="Layer 1"
     inkscape:groupmode="layer"
     id="layer1"
     transform="translate(0,-289.06249)">
    <path
       style="fill:#080808;fill-rule:evenodd;stroke:#ffffff;stroke-width:0.26458332px;stroke-linecap:butt;stroke-linejoin:miter;stroke-opacity:1;fill-opacity:1"
       d="m 0.23386084,289.46967 1.35639286,7.29646 3.5079126,-1.96443 z"
       id="path5036"
       inkscape:connector-curvature="0"
       sodipodi:nodetypes="cccc" />
    <path
       style="fill:#818181;fill-rule:evenodd;stroke:none;stroke-width:0.26458332px;stroke-linecap:butt;stroke-linejoin:miter;stroke-opacity:1;fill-opacity:1"
       d="m 0.89296874,290.74921 2.31510416,4.54752 -1.3229167,0.71107 z"
       id="path5082"
       inkscape:connector-curvature="0" />
    <path
       style="fill:#e47c7c;fill-rule:evenodd;stroke:none;stroke-width:0.26458332px;stroke-linecap:butt;stroke-linejoin:miter;stroke-opacity:1;fill-opacity:1"
       d="m 1.3229166,296.14009 c -0.97565098,-1.00872 -1.5213541,-0.57877 -1.1244791,-0.84336 0.39687499,-0.26458 0.9095052,0.14883 0.9095052,0.14883 0,0 -0.89296874,-1.0914 -0.64492187,-1.25677 0.24804687,-0.16536 0.90950517,1.05834 0.90950517,1.05834 0,0 -0.61184893,-1.25678 -0.3472656,-1.33946 0.2645833,-0.0827 0.5953125,1.25677 0.5953125,1.25677 0,0 -0.2645833,-1.37252 0.033073,-1.35599 0.2976563,0.0165 0.3141927,1.4056 0.3141927,1.4056 0,0 -0.066146,-1.53789 0.2315104,-1.32291 0.2976563,0.21497 0.485636,1.73818 0.049609,1.90169 z"
       id="path5084"
       inkscape:connector-curvature="0"
       sodipodi:nodetypes="ccccccccccsc" />
  </g>
</svg>
